<svg width="24" height="24" viewBox="0 0 24 24" fill="none" xmlns="http://www.w3.org/2000/svg">
<path d="M22.9172 15.5671C22.7906 15.5108 22.7906 15.3421 22.9172 15.2858C23.5406 15.0046 23.9719 14.3765 23.9719 13.6452C23.9719 12.914 23.5406 12.2999 22.9172 12.0233C22.7906 11.9671 22.7906 11.7983 22.9172 11.7421C23.5406 11.4608 23.6437 10.8327 23.6437 10.1015C23.6437 9.10302 22.9172 8.3249 21.4734 8.3249H14.5594C14.475 8.3249 14.3906 8.32958 14.3109 8.34365L14.3016 8.3249H11.4984C11.9156 7.81396 12.3328 6.60458 12.5812 5.81708C13.6875 2.33896 12.5391 0.923334 11.4984 0.548334C10.6219 0.234272 9.65156 1.37333 9.36094 2.31083C7.4625 6.77333 5.95312 7.54677 5.37656 8.07177C4.7625 8.49365 4.26563 9.0749 3.95625 9.75927H1.28906C0.576563 9.75927 0 10.3358 0 11.0483V19.2093C0 19.9218 0.576563 20.4983 1.28906 20.4983H4.84219C5.86406 21.7452 7.41563 22.5421 9.15469 22.5421H21.4688C22.4578 22.5421 23.2641 21.7358 23.2641 20.7374C23.2641 20.0061 22.8328 19.3921 22.2094 19.1155C22.1109 19.0733 22.0828 18.9327 22.1391 18.8671C22.1672 18.8577 22.1906 18.8436 22.2188 18.8343C23.0766 18.7686 23.7844 18.1311 23.7844 17.1936C23.7797 16.4577 23.5359 15.8436 22.9172 15.5671Z" fill="#FFD3B6"/>
<path d="M12.7643 20.7609C12.7643 20.0297 13.1955 19.4016 13.8189 19.1203C13.9408 19.0641 13.9455 18.9094 13.833 18.8438C13.4768 18.6891 13.1814 18.4266 12.9939 18.0891L12.9377 17.9766V17.9719C12.9236 17.9391 12.9049 17.9016 12.8908 17.8688C12.8908 17.8641 12.8861 17.8594 12.8861 17.8547C12.8721 17.8172 12.858 17.7797 12.8486 17.7422C12.8486 17.7375 12.8486 17.7375 12.8439 17.7328C12.8346 17.7 12.8252 17.6625 12.8158 17.6297C12.8158 17.6203 12.8111 17.6109 12.8111 17.6063C12.8018 17.5688 12.7971 17.5313 12.7877 17.4891V17.4797C12.783 17.4422 12.7783 17.4094 12.7736 17.3719V17.3391C12.7689 17.2969 12.7689 17.2594 12.7689 17.2172C12.7689 17.175 12.7689 17.1375 12.7736 17.0953V17.0625C12.7783 17.025 12.7783 16.9875 12.7877 16.9547V16.9453C12.7924 16.9078 12.8018 16.8656 12.8111 16.8281C12.8111 16.8187 12.8158 16.8094 12.8158 16.8047C12.8252 16.7672 12.8346 16.7344 12.8439 16.6969C12.8439 16.6922 12.8439 16.6922 12.8486 16.6875C12.8627 16.65 12.8721 16.6125 12.8861 16.575C12.8861 16.5703 12.8908 16.5656 12.8908 16.5609C12.9049 16.5234 12.9189 16.4859 12.9377 16.4531C13.1205 16.0594 13.4439 15.7453 13.8377 15.5672C13.9455 15.5016 13.9408 15.3469 13.8189 15.2906C13.1955 15.0141 12.7643 14.4 12.7643 13.6688C12.7643 12.9375 13.1955 12.3094 13.8189 12.0281C13.9455 11.9719 13.9455 11.7984 13.8189 11.7469C13.1955 11.4703 12.7643 10.8563 12.7643 10.125C12.7643 9.13125 13.5658 8.32031 14.5596 8.32031H13.5705C12.5814 8.32031 11.7752 9.12656 11.7752 10.125C11.7752 10.8563 12.2064 11.4703 12.8299 11.7469C12.9564 11.8031 12.9564 11.9719 12.8299 12.0281C12.2064 12.3094 11.7752 12.9375 11.7752 13.6688C11.7752 14.4 12.2064 15.0141 12.8299 15.2906C12.9564 15.3469 12.9564 15.5156 12.8299 15.5719C12.2064 15.8531 11.7752 16.4813 11.7752 17.2125C11.7752 17.9438 12.2064 18.5578 12.8299 18.8344C12.9564 18.8906 12.9564 19.0594 12.8299 19.1156C12.2064 19.3969 11.7752 20.025 11.7752 20.7562C11.7752 21.7547 12.5768 22.5328 13.5705 22.5328H14.5596C13.5658 22.5375 12.7643 21.7594 12.7643 20.7609ZM3.58145 16.9688V11.4797C3.58145 10.8656 3.71738 10.2844 3.95645 9.75937H3.37988C2.83613 9.75937 2.39551 10.2 2.39551 10.7437V19.5141C2.39551 20.0578 2.83613 20.4984 3.37988 20.4984H4.84238C4.05488 19.5375 3.58145 18.3047 3.58145 16.9688Z" fill="#EDC0A2"/>
</svg>
