<svg width="27" height="24" viewBox="0 0 27 24" fill="none" xmlns="http://www.w3.org/2000/svg">
<g clip-path="url(#clip0_1643_18702)">
<path d="M25.9122 5.83127C25.9122 4.80999 25.1412 4.11552 24.2067 4.04403C24.1761 4.03382 24.1505 4.0185 24.1199 4.00829C24.0586 3.9368 24.0892 3.78361 24.1965 3.73765C24.8756 3.43637 25.3454 2.76744 25.3454 1.97084C25.3454 0.883181 24.4671 0.00488281 23.3897 0.00488281H9.97521C8.08074 0.00488281 6.39053 0.872968 5.27734 2.23127H1.4067C0.630527 2.23127 0.00244141 2.85935 0.00244141 3.63552V12.5257C0.00244141 13.3019 0.630527 13.93 1.4067 13.93H4.31223C4.64925 14.6755 5.19053 15.3087 5.85946 15.7683C6.48755 16.3402 8.1318 17.1828 10.1999 22.044C10.5165 23.0653 11.5735 24.3062 12.5284 23.964C13.662 23.5555 14.9131 22.0134 13.708 18.2245C13.4373 17.3666 12.9829 16.0491 12.5284 15.4925H15.582L15.5922 15.4721C15.679 15.4874 15.771 15.4925 15.8629 15.4925H23.3948C24.9675 15.4925 25.759 14.6449 25.759 13.5572C25.759 12.7606 25.6467 12.0764 24.9675 11.77C24.8297 11.7087 24.8297 11.5249 24.9675 11.4636C25.6467 11.1623 26.1165 10.4934 26.1165 9.6968C26.1165 8.9002 25.6467 8.21595 24.9675 7.90956C24.8297 7.84829 24.8297 7.66446 24.9675 7.60318C25.6416 7.3019 25.9071 6.63297 25.9122 5.83127Z" fill="#FFD3B6"/>
<path d="M15.8629 0.0156479H14.7854C13.7029 0.0156479 12.8297 0.863308 12.8297 1.95097C12.8297 2.74756 13.2995 3.43182 13.9786 3.7382C14.1165 3.79948 14.1165 3.98331 13.9786 4.04458C13.2995 4.34586 12.8297 5.0148 12.8297 5.81139C12.8297 6.60799 13.2995 7.29224 13.9786 7.59863C14.1165 7.6599 14.1165 7.84373 13.9786 7.90501C13.2995 8.20629 12.8297 8.87522 12.8297 9.67182C12.8297 10.4684 13.2995 11.1527 13.9786 11.4591C14.1165 11.5203 14.1165 11.7042 13.9786 11.7654C13.2995 12.0667 12.8297 12.7356 12.8297 13.5322C12.8297 14.6199 13.708 15.4982 14.7854 15.4982H15.8629C14.7803 15.4982 13.9071 14.6148 13.9071 13.5322C13.9071 12.7356 14.3769 12.0667 15.0561 11.7654C15.1939 11.7093 15.1939 11.5203 15.0561 11.4591C14.3769 11.1527 13.9071 10.4684 13.9071 9.67182C13.9071 8.87522 14.3769 8.20629 15.0561 7.90501C15.1888 7.84373 15.1939 7.67522 15.0765 7.60373C14.6476 7.40969 14.2952 7.06756 14.0961 6.63863C14.0756 6.60288 14.0603 6.56203 14.045 6.52118C14.045 6.51607 14.0399 6.51097 14.0399 6.50586C14.0246 6.46501 14.0144 6.42416 13.9991 6.38331C13.9939 6.3782 13.9939 6.3782 13.9939 6.37309C13.9837 6.33224 13.9735 6.2965 13.9633 6.25565C13.9633 6.25054 13.9582 6.24033 13.9582 6.23012C13.948 6.18926 13.9378 6.14331 13.9327 6.10246V6.09224C13.9225 6.0565 13.9225 6.01565 13.9173 5.9748V5.93905C13.9122 5.89309 13.9122 5.85224 13.9122 5.80629C13.9122 5.76033 13.9122 5.71948 13.9173 5.67352V5.63778C13.9225 5.59692 13.9276 5.56118 13.9327 5.52033V5.51012C13.9429 5.46416 13.948 5.42331 13.9582 5.38246C13.9582 5.37735 13.9633 5.36714 13.9633 5.35692C13.9735 5.32118 13.9837 5.28033 13.9939 5.24458C13.999 5.23948 13.9991 5.23948 13.9991 5.23437C14.0093 5.19352 14.0246 5.15267 14.0399 5.11182C14.0399 5.10671 14.045 5.10161 14.045 5.0965C14.0603 5.06075 14.0808 5.0199 14.0961 4.98416V4.97905L14.1573 4.8565C14.3616 4.48884 14.6833 4.20288 15.0714 4.03437C15.1939 3.96288 15.1888 3.79437 15.0561 3.73309C14.3769 3.42671 13.9071 2.74246 13.9071 1.94586C13.9071 0.858201 14.7803 0.0105416 15.8629 0.0156479ZM5.27735 2.23182H3.68416C3.09182 2.23182 2.61182 2.71182 2.61182 3.30416V12.8582C2.61182 13.4505 3.09182 13.9305 3.68416 13.9305H4.31224C4.05182 13.3586 3.90373 12.7254 3.90373 12.0565V6.07692C3.90373 4.62161 4.41948 3.27863 5.27735 2.23182Z" fill="#EDC0A2"/>
</g>
<defs>
<clipPath id="clip0_1643_18702">
<rect width="26.15" height="24" fill="white"/>
</clipPath>
</defs>
</svg>
