<svg width="24" height="24" viewBox="0 0 24 24" fill="none" xmlns="http://www.w3.org/2000/svg">
<path d="M3.41 1.86011L2 3.27011L4.73 6.00011H4C3.73478 6.00011 3.48043 6.10546 3.29289 6.293C3.10536 6.48054 3 6.73489 3 7.00011V17.0001C3 17.2653 3.10536 17.5197 3.29289 17.7072C3.48043 17.8948 3.73478 18.0001 4 18.0001H16C16.21 18.0001 16.39 17.9201 16.55 17.8201L19.73 21.0001L21.14 19.5901L12.28 10.7301L3.41 1.86011ZM5 16.0001V8.00011H6.73L14.73 16.0001H5ZM15 8.00011V10.6101L21 16.6101V6.50011L17 10.5001V7.00011C17 6.73489 16.8946 6.48054 16.7071 6.293C16.5196 6.10546 16.2652 6.00011 16 6.00011H10.39L12.39 8.00011H15Z" fill="#601410"/>
</svg>
