<svg width="40" height="40" viewBox="0 0 30 38" fill="none" xmlns="http://www.w3.org/2000/svg">
<path d="M13.07 24.41C13.6774 23.5613 14.0041 22.5438 14.0041 21.5C14.0041 20.4563 13.6774 19.4388 13.07 18.59C13.6388 18.2026 14.3118 17.9968 15 18C15.9283 18 16.8185 18.3688 17.4749 19.0252C18.1313 19.6815 18.5 20.5718 18.5 21.5C18.5 22.4283 18.1313 23.3185 17.4749 23.9749C16.8185 24.6313 15.9283 25 15 25C14.3118 25.0032 13.6388 24.7975 13.07 24.41ZM5.5 21.5C5.5 20.8078 5.70527 20.1311 6.08986 19.5555C6.47444 18.98 7.02107 18.5314 7.66061 18.2665C8.30015 18.0016 9.00388 17.9322 9.68282 18.0673C10.3618 18.2023 10.9854 18.5357 11.4749 19.0252C11.9644 19.5146 12.2977 20.1383 12.4327 20.8172C12.5678 21.4962 12.4985 22.1999 12.2336 22.8394C11.9687 23.479 11.5201 24.0256 10.9445 24.4102C10.3689 24.7948 9.69223 25 9 25C8.07174 25 7.1815 24.6313 6.52513 23.9749C5.86875 23.3185 5.5 22.4283 5.5 21.5ZM7.5 21.5C7.5 21.7967 7.58797 22.0867 7.7528 22.3334C7.91762 22.5801 8.15189 22.7723 8.42597 22.8859C8.70006 22.9994 9.00166 23.0291 9.29264 22.9712C9.58361 22.9133 9.85088 22.7705 10.0607 22.5607C10.2704 22.3509 10.4133 22.0836 10.4712 21.7927C10.5291 21.5017 10.4994 21.2001 10.3858 20.926C10.2723 20.6519 10.08 20.4177 9.83335 20.2528C9.58668 20.088 9.29667 20 9 20C8.60218 20 8.22064 20.1581 7.93934 20.4394C7.65804 20.7207 7.5 21.1022 7.5 21.5ZM16 31V33H2V31C2 31 2 27 9 27C16 27 16 31 16 31ZM14 31C13.86 30.22 12.67 29 9 29C5.33 29 4.07 30.31 4 31M15.95 27C16.5629 27.4768 17.064 28.0819 17.4182 28.7729C17.7723 29.4639 17.9709 30.2241 18 31V33H22V31C22 31 22 27.37 15.94 27H15.95Z" fill="white"/>
<circle cx="22.5" cy="7.5" r="7.5" fill="#5F6368"/>
<path d="M22.2315 11.0994C21.7438 11.0994 21.3082 11.0154 20.9247 10.8473C20.5436 10.6792 20.2417 10.446 20.0192 10.1477C19.799 9.84706 19.6806 9.49905 19.6641 9.10369H20.7791C20.7933 9.31913 20.8655 9.50616 20.9957 9.66477C21.1283 9.82102 21.3011 9.94176 21.5142 10.027C21.7273 10.1122 21.964 10.1548 22.2244 10.1548C22.5109 10.1548 22.7642 10.1051 22.9844 10.0057C23.2069 9.90625 23.3809 9.76776 23.5064 9.5902C23.6319 9.41027 23.6946 9.20312 23.6946 8.96875C23.6946 8.72491 23.6319 8.51065 23.5064 8.32599C23.3833 8.13897 23.2022 7.99219 22.9631 7.88565C22.7263 7.77912 22.4399 7.72585 22.1037 7.72585H21.4893V6.83097H22.1037C22.3736 6.83097 22.6103 6.78243 22.8139 6.68537C23.0199 6.5883 23.1809 6.45336 23.2969 6.28054C23.4129 6.10535 23.4709 5.90057 23.4709 5.66619C23.4709 5.44129 23.42 5.24598 23.3182 5.08026C23.2188 4.91217 23.0767 4.78078 22.892 4.68608C22.7098 4.59138 22.4943 4.54403 22.2457 4.54403C22.009 4.54403 21.7876 4.58783 21.5817 4.67543C21.3781 4.76065 21.2124 4.88376 21.0845 5.04474C20.9567 5.20336 20.888 5.39394 20.8786 5.61648H19.8168C19.8286 5.22348 19.9446 4.87784 20.1648 4.57955C20.3873 4.28125 20.6809 4.04806 21.0455 3.87997C21.41 3.71188 21.8149 3.62784 22.2599 3.62784C22.7263 3.62784 23.1288 3.71899 23.4673 3.90128C23.8082 4.0812 24.071 4.3215 24.2557 4.62216C24.4427 4.92282 24.535 5.25189 24.5327 5.60938C24.535 6.01657 24.4214 6.36222 24.1918 6.64631C23.9645 6.9304 23.6615 7.12098 23.2827 7.21804V7.27486C23.7656 7.34825 24.1397 7.54001 24.4048 7.85014C24.6723 8.16027 24.8049 8.54498 24.8026 9.00426C24.8049 9.40436 24.6937 9.76302 24.4688 10.0803C24.2462 10.3975 23.942 10.6473 23.5561 10.8295C23.1702 11.0095 22.7287 11.0994 22.2315 11.0994Z" fill="white"/>
</svg>
