<svg width="24" height="24" viewBox="0 0 24 24" fill="none" xmlns="http://www.w3.org/2000/svg">
<path d="M17.6175 1.67969C13.5094 1.67969 12 5.87594 12 5.87594C12 5.87594 10.5113 1.67969 6.37313 1.67969C3.26438 1.67969 -0.279366 4.14344 1.02938 9.74406C2.33813 15.3447 12.0094 22.3216 12.0094 22.3216C12.0094 22.3216 21.645 15.3447 22.9556 9.74406C24.2644 4.14344 20.9756 1.67969 17.6175 1.67969Z" fill="#EF5592"/>
<path d="M5.73941 2.09781C8.96441 2.09781 10.5657 5.56469 11.0832 6.96906C11.1563 7.16969 11.4357 7.17531 11.52 6.98031L11.9925 5.87781C11.3269 3.74969 9.49691 1.67969 6.37316 1.67969C5.07941 1.67969 3.71254 2.10719 2.64941 3.00906C3.58879 2.39219 4.68941 2.09781 5.73941 2.09781ZM17.6175 1.67969C16.6257 1.67969 15.7857 1.96844 15.0807 2.40156C15.5757 2.21031 16.1232 2.09781 16.7307 2.09781C19.77 2.09781 22.4907 4.40219 21.2625 9.72906C20.2088 14.3022 14.0513 19.8503 12.1707 21.9672C12.0507 22.1022 12.0094 22.3197 12.0094 22.3197C12.0094 22.3197 21.645 15.3428 22.9557 9.74219C24.2644 4.14344 20.7244 1.67969 17.6175 1.67969Z" fill="#DA2E75"/>
<path d="M3.18742 4.65389C3.89055 3.77639 5.1468 3.05077 6.2118 3.88702C6.78742 4.33889 6.53617 5.26514 6.02055 5.65514C5.27055 6.22514 4.61805 6.56827 4.16055 7.46077C3.8868 7.99702 3.7218 8.58389 3.63742 9.18202C3.60367 9.41827 3.2943 9.47639 3.17805 9.26827C2.3868 7.86389 2.1618 5.93264 3.18742 4.65389Z" fill="#F386AB"/>
<path d="M13.8806 17.267C14.2534 17.267 14.5556 16.9648 14.5556 16.592C14.5556 16.2192 14.2534 15.917 13.8806 15.917C13.5078 15.917 13.2056 16.2192 13.2056 16.592C13.2056 16.9648 13.5078 17.267 13.8806 17.267Z" fill="#FDD835"/>
<path d="M14.5554 9.10305C14.9986 9.10305 15.3579 8.74376 15.3579 8.30055C15.3579 7.85734 14.9986 7.49805 14.5554 7.49805C14.1122 7.49805 13.7529 7.85734 13.7529 8.30055C13.7529 8.74376 14.1122 9.10305 14.5554 9.10305Z" fill="#FFF891"/>
<path d="M15.5796 13.9237L16.8803 12.623L18.181 13.9237L16.8803 15.2244L15.5796 13.9237Z" fill="#FFF891"/>
<path d="M12.268 14.0423L10.8036 13.5698C9.86608 13.2605 9.31858 12.503 9.06171 11.5505L8.41858 8.41359C8.40171 8.35172 8.34171 8.30859 8.23483 8.30859C8.12796 8.30859 8.06796 8.35172 8.05108 8.41359L7.40796 11.5523C7.14921 12.5048 6.60171 13.2623 5.66608 13.5717L4.20171 14.0442C3.99358 14.1117 3.99171 14.4042 4.19796 14.4736L5.67171 14.9817C6.60546 15.2911 7.14921 16.0486 7.40796 16.9973L8.05296 20.1005C8.06983 20.1623 8.12796 20.2036 8.23671 20.2036C8.34546 20.2036 8.40358 20.1605 8.42046 20.1005L9.06546 16.9973C9.32421 16.0486 9.86796 15.293 10.8017 14.9817L12.2755 14.4736C12.4798 14.4023 12.4761 14.1098 12.268 14.0423Z" fill="#FDD835"/>
<path d="M12.4088 14.1736C12.3973 14.1425 12.3788 14.1145 12.3548 14.0917C12.3307 14.069 12.3017 14.0521 12.2701 14.0423L10.8057 13.5698C9.8682 13.2604 9.3207 12.5029 9.06383 11.5504L8.41883 8.41355C8.40945 8.37793 8.3832 8.3498 8.3457 8.33105L8.54633 11.4436C8.70008 12.8817 8.8332 13.5586 9.9807 13.7554C10.9651 13.9261 12.1051 14.1211 12.4088 14.1736Z" fill="#FFF176"/>
<path d="M12.4105 14.3359L9.87176 14.9191C8.97738 15.1459 8.48426 15.6653 8.48426 17.0191L8.27051 20.1972C8.35676 20.1878 8.40363 20.1503 8.41863 20.0978L9.06363 16.9947C9.32238 16.0459 9.86613 15.2903 10.7999 14.9791L12.2736 14.4709C12.3449 14.4484 12.388 14.3959 12.4105 14.3359Z" fill="#F4B400"/>
<path d="M20.5404 4.71945C19.3985 4.34258 19.2954 3.91695 19.1023 3.20258L18.6242 0.950703C18.596 0.841953 18.3129 0.841953 18.2829 0.950703L17.9585 3.07508C17.7654 3.78758 17.3548 4.3557 16.6535 4.5882L15.3991 5.07383C15.2435 5.12445 15.2417 5.34383 15.3954 5.39633L16.6573 5.79383C17.3566 6.02633 17.7654 6.59258 17.9585 7.3032L18.2829 9.3582C18.3129 9.46508 18.5942 9.46508 18.6223 9.3582L19.0029 7.30883C19.196 6.59258 19.4904 6.02445 20.441 5.79195L21.6354 5.39258C21.791 5.34008 21.7891 5.1207 21.6335 5.07008L20.5404 4.71945Z" fill="#FDD835"/>
<path d="M18.7162 3.17766C18.8325 4.25391 18.8925 4.55391 19.7644 4.77516L21.72 5.12953C21.6989 5.10118 21.6693 5.0802 21.6356 5.06953L20.5406 4.71703C19.5394 4.37391 19.2844 3.98203 19.0762 3.06891L18.6262 0.950156C18.6225 0.933878 18.6147 0.918815 18.6035 0.906361C18.5924 0.893907 18.5783 0.884464 18.5625 0.878906L18.7162 3.17766Z" fill="#FFF176"/>
<path d="M18.7481 6.93543C18.7481 5.91918 19.3031 5.41855 20.1863 5.41855L21.6956 5.3623C21.6769 5.38855 21.5775 5.4148 21.5419 5.42793L20.5425 5.7748C19.7062 5.9998 19.3406 6.25293 19.1044 7.29168L18.6262 9.35793C18.6169 9.39543 18.5925 9.4198 18.5625 9.43105L18.7481 6.93543Z" fill="#F4B400"/>
</svg>
