<svg width="24" height="24" viewBox="0 0 24 24" fill="none" xmlns="http://www.w3.org/2000/svg">
<path d="M3.69361 15.9749C3.46861 15.9937 1.70611 16.0687 1.44361 16.0874C0.956107 16.1249 0.993607 16.9499 1.48111 16.9312C1.74361 16.9124 3.73111 16.8187 3.73111 16.8187C4.25611 16.7624 4.19986 15.9374 3.69361 15.9749ZM5.43736 18.7874C5.36236 19.0124 4.79986 20.6624 4.70611 20.9249C4.55611 21.3937 5.34361 21.6562 5.49361 21.1874C5.58736 20.9249 6.22486 19.0499 6.22486 19.0499C6.37486 18.5812 5.58736 18.3187 5.43736 18.7874ZM20.8874 3.44994C20.7186 3.59994 19.3499 4.70619 19.1624 4.89369C18.7874 5.21244 19.3124 5.84994 19.6874 5.53119C19.8936 5.36244 21.4124 4.08744 21.4124 4.08744C21.8061 3.74994 21.2624 3.11244 20.8874 3.44994ZM15.1874 2.28744C15.2624 2.51244 15.7311 4.19994 15.8061 4.44369C15.9374 4.91244 16.7436 4.68744 16.6124 4.21869C16.5374 3.95619 15.9936 2.06244 15.9936 2.06244C15.8436 1.57494 15.0374 1.79994 15.1874 2.28744ZM4.33111 17.4562C4.14361 17.5874 1.70611 19.2937 1.48111 19.4624C1.08736 19.7437 1.57486 20.4374 1.96861 20.1374C2.19361 19.9687 4.81861 18.1312 4.81861 18.1312C5.23111 17.8124 4.72486 17.1374 4.33111 17.4562ZM18.6749 1.08744C18.5999 1.31244 17.5874 4.12494 17.5124 4.38744C17.3624 4.85619 18.1499 5.13744 18.2999 4.66869C18.3936 4.40619 19.4624 1.36869 19.4624 1.36869C19.6124 0.881191 18.8249 0.618691 18.6749 1.08744Z" fill="#BDCCD4"/>
<path d="M18.5627 8.38157C18.9189 7.53782 19.5939 6.93782 20.3814 7.12532C20.9252 7.23782 21.0377 7.74407 21.0002 8.04407C20.5689 11.0253 21.2064 13.3128 21.0377 15.5253C20.8314 18.3191 19.0689 21.2066 15.3752 21.4691C13.0314 22.0316 10.4252 21.6378 8.3252 19.5941C7.1627 18.4691 6.1502 17.6066 4.74395 15.3191C4.1627 14.3628 3.2627 12.8441 3.2627 11.8503C3.2627 11.0066 4.10645 10.7441 4.5377 11.1378C3.9752 10.2378 3.7127 9.58157 3.69395 8.81282C3.6752 8.17532 4.4627 7.72532 4.96895 8.21282C4.5377 7.51907 3.9377 6.30032 4.8377 5.68157C5.11895 5.49407 5.83145 5.25032 6.69395 6.33782C6.46895 5.90657 6.2252 5.17532 6.8252 4.68782C7.14395 4.42532 7.7627 4.35032 8.2877 4.95032C8.2502 4.72532 8.56894 4.16282 9.09394 4.14407C9.73144 4.10657 10.2377 4.68782 10.6127 5.11907C10.2377 3.61907 11.7939 3.18782 12.6564 4.20032C13.1064 4.70657 14.1564 5.98157 15.7314 8.60657C15.6939 7.03157 16.4627 5.64407 17.5877 5.85032C17.9814 5.92532 18.3752 6.18782 18.4127 6.91907C18.4877 7.57532 18.5627 8.38157 18.5627 8.38157Z" fill="#FFCA28"/>
<mask id="mask0_1643_18658" style="mask-type:luminance" maskUnits="userSpaceOnUse" x="3" y="3" width="19" height="19">
<path d="M18.5627 8.38157C18.9189 7.53782 19.5939 6.93782 20.3814 7.12532C20.9252 7.23782 21.0377 7.74407 21.0002 8.04407C20.5689 11.0253 21.2064 13.3128 21.0377 15.5253C20.8314 18.3191 19.0689 21.2066 15.3752 21.4691C13.0314 22.0316 10.4252 21.6378 8.3252 19.5941C7.1627 18.4691 6.1502 17.6066 4.74395 15.3191C4.1627 14.3628 3.2627 12.8441 3.2627 11.8503C3.2627 11.0066 4.10645 10.7441 4.5377 11.1378C3.9752 10.2378 3.7127 9.58157 3.69395 8.81282C3.6752 8.17532 4.4627 7.72532 4.96895 8.21282C4.5377 7.51907 3.9377 6.30032 4.8377 5.68157C5.11895 5.49407 5.83145 5.25032 6.69395 6.33782C6.46895 5.90657 6.2252 5.17532 6.8252 4.68782C7.14395 4.42532 7.7627 4.35032 8.2877 4.95032C8.2502 4.72532 8.56894 4.16282 9.09394 4.14407C9.73144 4.10657 10.2377 4.68782 10.6127 5.11907C10.2377 3.61907 11.7939 3.18782 12.6564 4.20032C13.1064 4.70657 14.1564 5.98157 15.7314 8.60657C15.6939 7.03157 16.4627 5.64407 17.5877 5.85032C17.9814 5.92532 18.3752 6.18782 18.4127 6.91907C18.4877 7.57532 18.5627 8.38157 18.5627 8.38157" fill="white"/>
</mask>
<g mask="url(#mask0_1643_18658)">
<path d="M14.194 21.3758C12.769 21.3383 10.3315 21.432 7.25654 18.0195C6.71279 17.4195 4.68779 14.9633 3.61904 12.1508C3.52529 11.9258 3.54404 11.4195 3.91904 11.2883C4.29404 11.157 4.55654 11.4945 4.76279 11.8133C4.91279 12.0383 5.71904 13.3695 6.18779 13.9133C6.37529 14.1195 6.46904 13.9695 6.50654 13.932C5.43779 12.1133 4.01279 9.78828 4.01279 8.90703C4.01279 8.41953 4.53779 8.10078 4.91279 8.58828C5.21279 8.96328 6.54404 10.632 6.71279 10.857C6.88154 11.0633 7.01279 10.8945 7.06904 10.857C6.30029 9.86328 4.61279 7.27578 4.74404 6.45078C4.81904 5.96328 5.47529 5.60703 5.92529 6.05703C6.26279 6.39453 8.11904 8.45703 8.11904 8.45703C8.11904 8.45703 8.30654 8.66328 8.45654 8.47578C7.55654 7.35078 6.30029 5.60703 7.05029 4.98828C7.35029 4.74453 7.74404 4.63203 8.55029 5.49453C9.07529 6.05703 12.6003 9.24453 15.7128 11.307C16.0128 11.4945 16.219 11.1945 16.2003 10.9133C15.9378 8.11953 16.219 6.11328 17.4003 6.09453C17.944 6.09453 18.169 6.50703 18.2065 7.06953C18.244 7.61328 18.4128 9.13203 18.8065 10.6883C19.2003 12.2633 19.7815 14.457 19.6128 16.107C19.444 17.757 18.2628 19.7445 17.1565 20.4195C16.0315 21.0945 15.2628 21.2633 15.1315 21.3008C15.0003 21.3383 14.8128 21.7508 15.2815 21.657C15.7503 21.582 17.194 21.4508 17.194 21.4508L19.2753 20.3445L21.0565 18.1133L21.8253 14.9445L21.5815 5.86953L16.5003 4.98828L11.7003 2.73828L3.80654 4.80078L2.45654 12.3383L5.70029 17.9633L9.73154 21.6945C9.73154 21.6945 13.9315 21.9945 14.2315 21.957C14.5128 21.9383 14.6628 21.3945 14.194 21.3758Z" fill="#FAA700"/>
</g>
<mask id="mask1_1643_18658" style="mask-type:luminance" maskUnits="userSpaceOnUse" x="3" y="3" width="19" height="19">
<path d="M18.5627 8.38157C18.9189 7.53782 19.5939 6.93782 20.3814 7.12532C20.9252 7.23782 21.0377 7.74407 21.0002 8.04407C20.5689 11.0253 21.2064 13.3128 21.0377 15.5253C20.8314 18.3191 19.0689 21.2066 15.3752 21.4691C13.0314 22.0316 10.4252 21.6378 8.3252 19.5941C7.1627 18.4691 6.1502 17.6066 4.74395 15.3191C4.1627 14.3628 3.2627 12.8441 3.2627 11.8503C3.2627 11.0066 4.10645 10.7441 4.5377 11.1378C3.9752 10.2378 3.7127 9.58157 3.69395 8.81282C3.6752 8.17532 4.4627 7.72532 4.96895 8.21282C4.5377 7.51907 3.9377 6.30032 4.8377 5.68157C5.11895 5.49407 5.83145 5.25032 6.69395 6.33782C6.46895 5.90657 6.2252 5.17532 6.8252 4.68782C7.14395 4.42532 7.7627 4.35032 8.2877 4.95032C8.2502 4.72532 8.56894 4.16282 9.09394 4.14407C9.73144 4.10657 10.2377 4.68782 10.6127 5.11907C10.2377 3.61907 11.7939 3.18782 12.6564 4.20032C13.1064 4.70657 14.1564 5.98157 15.7314 8.60657C15.6939 7.03157 16.4627 5.64407 17.5877 5.85032C17.9814 5.92532 18.3752 6.18782 18.4127 6.91907C18.4877 7.57532 18.5627 8.38157 18.5627 8.38157" fill="white"/>
</mask>
<g mask="url(#mask1_1643_18658)">
<path d="M18.0004 5.6627C17.8691 5.7377 17.8691 5.86895 18.0004 6.0752C18.0941 6.2252 18.1691 6.4127 18.1504 6.9002C18.0754 10.6502 19.4254 12.2064 19.3504 15.7502C19.2754 19.5564 16.3879 21.8439 11.7754 21.3002C11.3066 21.2439 11.4566 21.6752 11.4566 21.6752C11.4566 21.6752 12.6754 21.9377 13.1254 21.9002C14.7191 21.8064 15.3941 21.4314 15.3941 21.4314C17.7004 20.9439 19.9316 18.7127 19.9316 15.7127C19.9316 13.2939 18.8629 10.4439 18.5816 8.3627C18.4879 7.66895 18.7879 6.9752 18.8441 6.61895C18.9004 6.0377 18.4691 5.4002 18.0004 5.6627ZM4.55661 11.1189C4.44411 10.9314 4.27536 11.0439 4.36911 11.2314C4.48161 11.4564 5.43786 13.5752 7.48161 15.8627C7.57536 15.9564 7.66911 16.1439 7.68786 16.2189C7.74411 16.4814 8.06286 16.4439 8.11911 16.2189C8.13786 16.1252 8.17536 16.0314 8.19411 15.9377C8.21286 15.8814 8.23161 15.7502 8.11911 15.6377C6.90036 14.4189 5.71911 13.0314 4.55661 11.1189ZM4.96911 8.19395C4.91286 8.11895 4.83786 8.04395 4.81911 7.9877C4.72536 8.0252 4.66911 8.08145 4.76286 8.30645C5.56911 10.0877 8.10036 12.7127 8.71911 13.3127C8.86911 13.4627 8.88786 13.5564 8.92536 13.6877C9.05661 14.1752 9.35661 14.1189 9.46911 13.9127C9.54411 13.7627 9.61911 13.6314 9.63786 13.5564C9.65661 13.4814 9.67536 13.3877 9.56286 13.2939C8.00661 11.9252 6.22536 9.8627 4.96911 8.19395ZM6.71286 6.3002C6.61911 6.1502 6.45036 5.90645 6.45036 5.90645C6.45036 5.90645 6.22536 5.9627 6.37536 6.24395C7.27536 7.93145 9.63786 10.5939 10.5566 11.3439C10.6504 11.4189 10.8004 11.6252 10.8566 11.7939C10.9691 12.1502 11.2504 12.1314 11.4004 11.9439C11.4754 11.8502 11.5504 11.7564 11.5879 11.6439C11.6441 11.5502 11.6066 11.4189 11.4566 11.2877C8.77536 8.98145 6.71286 6.3002 6.71286 6.3002ZM10.9691 3.6377C10.8754 3.91895 10.6691 4.3877 11.0441 5.15645C11.7379 6.6002 13.1629 7.93145 14.0629 10.1627C13.8004 9.9752 13.5941 9.80645 13.2754 9.5627C12.6191 7.9877 10.7816 5.90645 10.6316 5.0627C10.5191 4.48145 10.3691 3.88145 10.3691 3.88145L10.9691 3.6377Z" fill="#B55E19"/>
</g>
</svg>
