<svg width="24" height="24" viewBox="0 0 24 24" fill="none" xmlns="http://www.w3.org/2000/svg">
<path d="M11.9248 22.275C6.69355 22.275 1.0498 18.9938 1.0498 11.7938C1.0498 4.59375 6.69355 1.3125 11.9248 1.3125C14.8311 1.3125 17.5123 2.26875 19.4998 4.0125C21.6561 5.925 22.7998 8.625 22.7998 11.7938C22.7998 14.9625 21.6561 17.6438 19.4998 19.5563C17.5123 21.3 14.8123 22.275 11.9248 22.275Z" fill="url(#paint0_radial_1643_18692)"/>
<path d="M20.9042 5.56348C21.9036 7.17598 22.4249 9.09598 22.4249 11.2316C22.4249 14.4004 21.2811 17.0816 19.1249 18.9941C17.1374 20.7379 14.4374 21.7129 11.5499 21.7129C8.16361 21.7129 4.61236 20.3347 2.51611 17.4116C4.53361 20.7229 8.32861 22.2754 11.9249 22.2754C14.8124 22.2754 17.5124 21.3004 19.4999 19.5566C21.6561 17.6441 22.7999 14.9629 22.7999 11.7941C22.7999 9.40535 22.1492 7.28285 20.9042 5.56348Z" fill="#EB8F00"/>
<path d="M11.9998 14.8877C14.0248 14.8877 15.4498 15.9377 15.8811 16.5939C15.9619 16.6957 16.0134 16.8176 16.0299 16.9465C16.0464 17.0754 16.0274 17.2063 15.9748 17.3252C15.8923 17.4771 15.7348 17.5708 15.5623 17.5689C15.4986 17.5652 15.4348 17.5521 15.3748 17.5314C14.2772 17.2184 13.1412 17.0606 11.9998 17.0627C10.8636 17.0552 9.73108 17.2202 8.64358 17.5502C8.58358 17.5708 8.51983 17.5839 8.45608 17.5877C8.28358 17.5933 8.12233 17.4996 8.04358 17.3439C7.93483 17.1021 7.97233 16.8189 8.13733 16.6127C8.54983 15.9377 9.99358 14.8877 11.9998 14.8877Z" fill="#422B0D"/>
<path d="M6.9375 19.5941C5.71875 19.5941 4.78125 18.4128 4.78125 17.4003C4.78125 16.6878 5.1 15.8628 5.55 14.7191C5.60625 14.5503 5.68125 14.3816 5.75625 14.1941C6.01875 13.5153 6.31875 12.8516 6.65625 12.2066C6.72375 12.0772 6.8775 12.021 7.0125 12.0753C7.06875 12.1035 7.11562 12.1503 7.14375 12.2066C7.425 12.7878 7.74375 13.5003 8.0625 14.2316C8.85 15.9941 9.075 16.7066 9.075 17.4191C9.09375 18.4128 8.1375 19.5941 6.9375 19.5941Z" fill="url(#paint1_radial_1643_18692)"/>
<path d="M8.2501 18.242C7.97447 18.6676 7.3501 18.587 7.3501 17.8801C7.3501 17.4282 7.44197 15.107 7.8301 15.4314C8.4676 15.9601 8.6476 17.6401 8.2501 18.242Z" fill="#81D4FA"/>
<path d="M5.62487 8.75647C5.39049 9.10334 4.83362 8.88022 4.99674 8.46022C5.38112 7.54709 6.09924 6.81584 7.00674 6.41834C7.33862 6.26084 7.69674 6.16147 8.06237 6.12209C8.24799 6.08459 8.42987 6.20459 8.46737 6.39022C8.50487 6.57584 8.38487 6.75772 8.19737 6.79522H8.17299C7.12654 7.1425 6.22843 7.83376 5.62487 8.75647ZM18.2417 8.75647C18.4761 9.10334 19.033 8.88022 18.8699 8.46022C18.4842 7.54535 17.761 6.81414 16.8505 6.41834C16.5186 6.26084 16.1642 6.16147 15.7986 6.12209C15.613 6.08459 15.4311 6.20459 15.3955 6.39022C15.358 6.57584 15.478 6.75772 15.6636 6.79522H15.688C16.7361 7.14022 17.638 7.83209 18.2417 8.75647ZM8.37549 8.80147C7.58987 8.80147 6.87549 9.46522 6.87549 10.5677C6.87549 11.6702 7.58987 12.3321 8.37549 12.3321C9.16112 12.3321 9.87549 11.6683 9.87549 10.5677C9.87549 9.46709 9.16112 8.80147 8.37549 8.80147Z" fill="#422B0D"/>
<path d="M8.30269 9.53859C8.1743 9.47751 8.02698 9.46965 7.89282 9.51671C7.75866 9.56377 7.64853 9.66194 7.58644 9.78984C7.48706 9.99796 7.53206 10.2473 7.69894 10.4086C7.96519 10.5361 8.28581 10.4236 8.41519 10.1573C8.51456 9.94921 8.46956 9.69984 8.30269 9.53859Z" fill="#896024"/>
<path d="M15.5625 8.80078C14.7769 8.80078 14.0625 9.46453 14.0625 10.567C14.0625 11.6695 14.7769 12.3314 15.5625 12.3314C16.3481 12.3314 17.0625 11.6677 17.0625 10.567C17.0625 9.46641 16.3519 8.80078 15.5625 8.80078Z" fill="#422B0D"/>
<path d="M15.4931 9.53859C15.3647 9.47751 15.2174 9.46965 15.0832 9.51671C14.9491 9.56377 14.839 9.66194 14.7769 9.78984C14.6775 9.99796 14.7225 10.2473 14.8894 10.4086C15.1556 10.5361 15.4762 10.4236 15.6056 10.1573C15.705 9.94921 15.66 9.69984 15.4931 9.53859Z" fill="#896024"/>
<defs>
<radialGradient id="paint0_radial_1643_18692" cx="0" cy="0" r="1" gradientUnits="userSpaceOnUse" gradientTransform="translate(11.9248 11.7938) scale(10.68)">
<stop offset="0.5" stop-color="#FDE030"/>
<stop offset="0.92" stop-color="#F7C02B"/>
<stop offset="1" stop-color="#F4A223"/>
</radialGradient>
<radialGradient id="paint1_radial_1643_18692" cx="0" cy="0" r="1" gradientUnits="userSpaceOnUse" gradientTransform="translate(7.09125 13.0115) scale(4.95375 7.62877)">
<stop offset="0.46" stop-color="#29B6F6"/>
<stop offset="1" stop-color="#1E88E5"/>
</radialGradient>
</defs>
</svg>
