<svg width="24" height="24" viewBox="0 0 24 24" fill="none" xmlns="http://www.w3.org/2000/svg">
<path d="M11.9248 22.275C6.69355 22.275 1.0498 18.9938 1.0498 11.7938C1.0498 4.59375 6.69355 1.3125 11.9248 1.3125C14.8311 1.3125 17.5123 2.26875 19.4998 4.0125C21.6561 5.925 22.7998 8.625 22.7998 11.7938C22.7998 14.9625 21.6561 17.6438 19.4998 19.5563C17.5123 21.3 14.8123 22.275 11.9248 22.275Z" fill="url(#paint0_radial_1643_18705)"/>
<path d="M11.9248 22.275C6.69355 22.275 1.0498 18.9938 1.0498 11.7938C1.0498 4.59375 6.69355 1.3125 11.9248 1.3125C14.8311 1.3125 17.5123 2.26875 19.4998 4.0125C21.6561 5.925 22.7998 8.625 22.7998 11.7938C22.7998 14.9625 21.6561 17.6438 19.4998 19.5563C17.5123 21.3 14.8123 22.275 11.9248 22.275Z" fill="url(#paint1_linear_1643_18705)"/>
<path d="M20.9042 5.56348C21.9036 7.17598 22.4249 9.09598 22.4249 11.2316C22.4249 14.4004 21.2811 17.0816 19.1249 18.9941C17.1374 20.7379 14.4374 21.7129 11.5499 21.7129C8.16361 21.7129 4.61236 20.3347 2.51611 17.4116C4.53361 20.7229 8.32861 22.2754 11.9249 22.2754C14.8124 22.2754 17.5124 21.3004 19.4999 19.5566C21.6561 17.6441 22.7999 14.9629 22.7999 11.7941C22.7999 9.40535 22.1492 7.28285 20.9042 5.56348Z" fill="#EB8F00"/>
<path d="M1.19245 14.0817C0.851195 14.496 1.57682 15.5967 1.7062 16.1573C2.01745 17.511 1.7062 17.8448 1.68182 19.0485C1.6612 20.3723 2.05682 21.486 3.06557 22.1967C4.01432 22.8698 5.15807 23.2148 6.62057 22.7835C8.08307 22.3523 8.97182 21.876 9.04682 21.156C9.08807 20.8579 8.93057 20.5654 8.65682 20.4379C8.80307 20.3685 8.91932 20.2504 8.98494 20.1023C9.33369 19.2698 8.63807 19.0935 8.63807 19.0935C8.73369 18.9792 8.81432 18.8535 8.87807 18.7185C9.08619 18.3042 9.05245 17.7417 8.45245 17.5579C8.17682 17.4735 8.10182 17.5185 8.10182 17.5185C8.38682 17.226 8.72807 16.9917 9.10494 16.8342C10.1137 16.401 11.3099 16.1385 11.6081 15.8854C12.0412 15.5104 12.0674 14.7885 11.3024 14.5729C10.2037 14.2504 8.18245 15.0004 6.95245 15.7823C5.72245 16.5642 4.5937 16.986 4.2187 16.8435C3.8437 16.701 3.6112 16.4685 3.4687 15.906C3.20432 14.8598 2.99994 14.4548 2.55182 14.0629C2.18057 13.7442 1.45495 13.7629 1.19245 14.0817Z" fill="url(#paint2_radial_1643_18705)"/>
<path d="M12.0358 15.0712C11.9101 13.3537 8.52764 14.4149 6.80076 15.5456C4.65389 16.9518 4.33889 16.7024 4.12889 16.5712C3.87576 16.4137 3.71639 16.2824 3.59264 15.7949C3.31326 14.6924 3.23639 14.2874 2.73389 13.8487C2.31389 13.4606 1.04826 13.4699 0.963888 14.0849C0.872013 14.7468 1.24701 14.8706 1.50014 16.1437C1.81326 17.4337 1.68764 18.8587 1.68764 18.8587C1.68764 18.8587 2.27264 17.4993 1.71014 15.3806C1.59576 14.8087 1.05201 13.9331 1.97076 14.0324C2.85951 14.1281 2.91764 14.9024 3.19514 15.9731C3.34889 16.5787 3.50639 16.9349 4.11764 17.1037C4.72514 17.2706 6.12951 16.4906 7.13826 15.8493C8.37389 15.0637 10.2058 14.3774 11.1676 14.6587C11.5839 14.7487 11.8614 15.2868 11.4245 15.6674C10.7308 16.3218 8.06264 16.6162 6.45576 18.3543C6.45576 18.3543 6.65076 18.4256 6.94326 18.2812C7.23764 18.1368 8.33639 17.5931 8.33639 17.5931C8.66451 17.7318 8.82201 18.2774 8.64389 18.5681C8.35514 19.0387 7.23201 19.6893 6.67139 19.6612C6.67139 19.6612 6.66201 19.9481 7.22451 19.8712C7.40264 19.8468 8.13951 19.6856 8.65514 19.2862C9.03951 19.5637 8.93076 20.0362 8.64201 20.3774C8.35514 20.7168 7.65389 21.1556 6.93201 21.2324C6.93201 21.2324 6.86076 21.5062 7.34639 21.5006C7.83201 21.4949 8.35889 21.2474 8.74701 20.9456C8.80514 21.0374 8.85951 21.2381 8.79389 21.5137C8.69264 21.9393 8.12076 22.3706 7.01639 22.6106C5.99826 22.8318 4.85076 22.9874 2.63639 21.8381C2.63639 21.8381 3.46326 22.9124 5.62139 23.1037C7.69139 23.2874 10.1083 22.3706 9.13889 20.5312C9.13889 20.5312 9.34889 20.2199 9.37514 19.7924C9.39389 19.4999 9.30201 19.1006 9.08639 18.9187C9.28889 18.3224 9.22514 17.9099 9.09576 17.6662C9.00951 17.5049 8.79201 17.3474 8.79201 17.3474C8.79201 17.3474 9.22139 16.9593 10.487 16.6331C11.2989 16.4212 12.1126 16.1212 12.0358 15.0712Z" fill="#EB8F00"/>
<path d="M3.49479 15.3994C3.49479 15.3994 4.40041 16.8732 6.39541 15.8044C6.39541 15.8044 5.17104 17.0888 4.21854 16.8432C3.26604 16.5975 3.49479 15.3994 3.49479 15.3994ZM9.18729 17.9138C9.18729 17.9138 9.64854 16.9238 10.4885 16.6294C10.4885 16.6294 9.12354 16.7457 8.60416 17.3063L9.18729 17.9138Z" fill="#EB8F00"/>
<path d="M14.4132 13.3706C14.3532 13.3593 14.297 13.335 14.2501 13.2956C13.405 12.6174 12.3962 12.1738 11.3251 12.0093C10.2545 11.8237 9.15574 11.925 8.13762 12.3018C8.08137 12.3243 8.02137 12.3318 7.96137 12.3225C7.83012 12.3 7.72324 12.2025 7.68762 12.0731C7.65199 11.9456 7.69512 11.8106 7.79637 11.7262C9.78387 10.0762 12.7314 10.35 14.3814 12.3375C14.5164 12.5006 14.6401 12.6731 14.7526 12.8512C14.8239 12.9618 14.8239 13.1043 14.7526 13.215C14.6795 13.3293 14.5464 13.3893 14.4132 13.3706ZM15.1445 5.83309C15.9301 5.83309 16.6445 6.49684 16.6445 7.59934C16.6445 8.70184 15.9301 9.36372 15.1445 9.36372C14.3589 9.36372 13.6445 8.69997 13.6445 7.59934C13.6445 6.49872 14.3589 5.83309 15.1445 5.83309ZM8.65137 4.12497C7.86574 4.12497 7.15137 4.78872 7.15137 5.88934C7.15137 6.98997 7.86574 7.65559 8.65137 7.65559C9.43887 7.65559 10.1514 6.99184 10.1514 5.88934C10.1514 4.78684 9.43887 4.12497 8.65137 4.12497ZM7.44949 1.99309C7.36512 1.85434 7.35387 1.68184 7.41949 1.53372C7.49074 1.38559 7.63137 1.28434 7.79449 1.26372C8.81637 1.10434 9.85887 1.34622 10.7064 1.93684C11.0232 2.15434 11.3045 2.41684 11.5426 2.71872C11.5576 2.73747 11.5707 2.75809 11.5839 2.78059C11.7114 2.97934 11.6682 3.24184 11.4845 3.38997C11.389 3.46905 11.2682 3.51106 11.1442 3.50831C11.0202 3.50555 10.9014 3.45821 10.8095 3.37497L10.8882 3.24747L10.7926 3.35997C9.97198 2.67348 8.94453 2.28257 7.87512 2.24997C7.69699 2.24997 7.53199 2.15622 7.44199 2.00247L7.44949 1.99309ZM17.4376 5.34747C17.5061 5.30924 17.5646 5.25532 17.6083 5.19014C17.652 5.12497 17.6796 5.05037 17.6889 4.97247C17.6948 4.89242 17.6807 4.81216 17.648 4.73886C17.6153 4.66557 17.5649 4.60153 17.5014 4.55247C16.6895 3.90559 15.6582 3.59622 14.6251 3.69372C14.2426 3.72559 13.8676 3.81559 13.5114 3.95997L13.4439 3.99184C13.2357 4.10247 13.1439 4.35184 13.2301 4.57122C13.274 4.68634 13.3578 4.78186 13.4662 4.84037C13.5746 4.89888 13.7004 4.91648 13.8207 4.88997V4.73997L13.847 4.88622C14.897 4.69122 15.9826 4.85434 16.9295 5.34934C17.0851 5.43747 17.2745 5.43747 17.4301 5.34934L17.4376 5.34747Z" fill="#422B0D"/>
<path d="M8.61729 4.71587C8.42417 4.58087 8.13355 4.624 7.94605 4.894C7.75855 5.16587 7.82042 5.45087 8.01355 5.58587C8.20667 5.72087 8.49729 5.67775 8.68479 5.40775C8.87229 5.13587 8.81042 4.85087 8.61729 4.71587ZM15.1067 6.32087C14.9135 6.18587 14.6229 6.229 14.4354 6.499C14.2479 6.77087 14.3098 7.05587 14.5029 7.19087C14.696 7.32587 14.9867 7.28275 15.1742 7.01275C15.3635 6.74087 15.3017 6.45587 15.1067 6.32087Z" fill="#896024"/>
<defs>
<radialGradient id="paint0_radial_1643_18705" cx="0" cy="0" r="1" gradientUnits="userSpaceOnUse" gradientTransform="translate(11.9248 11.7938) scale(10.68)">
<stop offset="0.5" stop-color="#FDE030"/>
<stop offset="0.92" stop-color="#F7C02B"/>
<stop offset="1" stop-color="#F4A223"/>
</radialGradient>
<linearGradient id="paint1_linear_1643_18705" x1="11.9248" y1="22.275" x2="11.9248" y2="1.3125" gradientUnits="userSpaceOnUse">
<stop stop-color="#F4A223"/>
<stop offset="0.08" stop-color="#F7C02B"/>
<stop offset="0.54" stop-color="#FDE030" stop-opacity="0"/>
</linearGradient>
<radialGradient id="paint2_radial_1643_18705" cx="0" cy="0" r="1" gradientUnits="userSpaceOnUse" gradientTransform="translate(7.77182 15.6593) scale(11.1435 10.4749)">
<stop offset="0.27" stop-color="#FFF176"/>
<stop offset="1" stop-color="#FFC400"/>
</radialGradient>
</defs>
</svg>
