<svg width="24" height="24" viewBox="0 0 24 24" fill="none" xmlns="http://www.w3.org/2000/svg">
<g clip-path="url(#clip0_1643_18637)">
<path d="M1.39701 23.1134C1.82264 23.5746 3.57576 22.7703 4.95951 22.1253C5.99639 21.6434 10.1458 19.9409 12.2083 19.0578C12.7651 18.8196 13.5751 18.5084 14.1583 17.7415C14.6758 17.059 16.0483 14.1603 13.2845 11.224C10.4795 8.24277 7.59014 9.0659 6.51014 9.8309C5.87451 10.2809 5.35701 11.2953 5.12451 11.8109C4.14201 13.9896 2.74139 17.9815 2.17139 19.5509C1.75326 20.7078 0.975136 22.6559 1.39701 23.1134Z" fill="#FFC107"/>
<path d="M4.84703 12.4668C4.87328 12.793 4.93891 13.3237 5.16391 14.3455C5.31766 15.0468 5.56891 15.7818 5.77328 16.2674C6.38641 17.728 7.24703 18.3168 8.11891 18.7893C9.60016 19.5918 10.607 19.7418 10.607 19.7418L9.39953 20.2349C9.39953 20.2349 8.66828 20.083 7.67078 19.5918C6.72016 19.123 5.73016 18.3299 5.00641 16.7774C4.69328 16.1043 4.51141 15.4518 4.40641 14.9343C4.27703 14.293 4.25641 13.9293 4.25641 13.9293L4.84703 12.4668ZM3.36391 16.2693C3.36391 16.2693 3.51391 17.4862 4.51891 19.0218C5.69641 20.818 7.34078 21.1124 7.34078 21.1124L6.24766 21.5624C6.24766 21.5624 5.02703 21.1893 3.86641 19.6049C3.14266 18.6168 2.94016 17.4355 2.94016 17.4355L3.36391 16.2693ZM2.32328 19.153C2.32328 19.153 2.59703 20.203 3.19703 20.9868C3.91141 21.9224 4.82078 22.1943 4.82078 22.1943L3.98266 22.5655C3.98266 22.5655 3.34703 22.4324 2.65141 21.5512C2.12266 20.8818 1.97266 20.113 1.97266 20.113L2.32328 19.153Z" fill="#FF8F00"/>
<path opacity="0.44" d="M1.86774 21.8196C1.83024 21.7352 1.83024 21.6396 1.86961 21.5571L6.64524 11.6533L7.43086 14.6064L2.40586 21.8646C2.27086 22.0671 1.96711 22.0408 1.86774 21.8196Z" fill="#FFFDE7"/>
<path d="M7.80917 15.5982C10.0404 18.2082 12.581 17.882 13.4267 17.222C14.2742 16.5601 14.9435 14.2857 12.7217 11.7188C10.3929 9.03008 7.75667 9.79696 7.14729 10.3782C6.53792 10.9595 5.76167 13.2038 7.80917 15.5982Z" fill="url(#paint0_linear_1643_18637)"/>
<path d="M15.4725 16.6726C14.6588 15.9901 14.2256 16.112 13.6444 16.3538C12.8944 16.6651 11.715 16.8957 10.1138 16.3538L10.5956 15.1932C11.5463 15.5138 12.2344 15.3582 12.8288 15.0076C13.5938 14.5576 14.64 13.9407 16.2675 15.3076C16.9463 15.8776 17.6419 16.2563 18.1519 16.0838C18.5231 15.9601 18.72 15.407 18.8194 14.9663C18.8288 14.927 18.8438 14.8145 18.855 14.7151C18.945 14.027 19.095 12.542 20.2013 11.7826C21.3844 10.9707 22.6275 10.9707 22.6275 10.9707L22.8525 13.2057C22.2806 13.1213 21.8831 13.2376 21.5475 13.4232C20.2838 14.1263 21.3844 16.8263 19.4175 17.7338C17.5256 18.6132 15.9788 17.0963 15.4725 16.6726Z" fill="#03A9F4"/>
<path d="M8.51249 13.8225L7.69874 13.0931C9.19311 11.4244 8.79936 10.1981 8.51249 9.30563C8.45436 9.12563 8.39999 8.955 8.36436 8.79187C8.23686 8.21437 8.21061 7.71188 8.24999 7.27313C7.67624 6.55875 7.42311 5.81062 7.40624 5.76C7.05749 4.70437 7.31999 3.675 7.92186 2.70937C9.13874 0.75 11.3419 0.75 11.3419 0.75L12.0769 2.71687C11.5181 2.69437 9.68624 2.7225 9.12374 3.60938C8.41311 4.72688 8.87999 5.41687 8.91374 5.49562C9.05061 5.3175 9.18936 5.175 9.31311 5.06438C10.2112 4.2675 10.9912 4.15312 11.4881 4.19812C12.0469 4.24875 12.5531 4.53 12.915 4.99125C13.3106 5.4975 13.4737 6.15563 13.3481 6.75375C13.2262 7.33688 12.8381 7.83 12.255 8.14313C11.2369 8.69063 10.3894 8.61562 9.82124 8.42625C9.82499 8.43937 9.82686 8.45437 9.83061 8.4675C9.85124 8.56125 9.89249 8.6925 9.94124 8.84437C10.2731 9.87187 10.89 11.5031 8.51249 13.8225ZM9.89061 6.78562C9.99936 6.86437 10.1137 6.93 10.2319 6.97687C10.6256 7.13437 11.055 7.08187 11.5425 6.81937C11.8294 6.66562 11.8631 6.50063 11.8744 6.44625C11.9081 6.28313 11.8519 6.075 11.73 5.91937C11.6231 5.7825 11.4994 5.71125 11.3512 5.69625C11.07 5.67187 10.6894 5.85 10.3087 6.18937C10.1269 6.3525 9.98811 6.55312 9.89061 6.78562Z" fill="#F44336"/>
<path d="M11.7694 14.128L10.605 14.0961C10.605 14.0961 11.1581 10.9724 12.9487 10.4474C13.2844 10.3499 13.6519 10.2505 14.0212 10.1961C14.2406 10.1624 14.5875 10.1118 14.7581 10.048C14.7975 9.75363 14.6737 9.37863 14.535 8.95301C14.4262 8.62301 14.3137 8.28363 14.2537 7.91238C14.1375 7.18863 14.3306 6.54926 14.7975 6.10863C15.3675 5.57426 16.2881 5.40363 17.3269 5.63988C17.9194 5.77488 18.3562 6.06551 18.7406 6.32051C19.29 6.68613 19.6106 6.87176 20.2819 6.41988C21.0937 5.87238 20.0325 3.72926 19.4681 2.49176L21.5737 1.61426C21.8569 2.23301 23.2237 5.41676 22.3219 7.23363C22.0181 7.84488 21.495 8.24988 20.8087 8.40176C19.3162 8.73551 18.4425 8.15426 17.805 7.73051C17.5031 7.52988 17.2387 7.37238 16.9519 7.28988C14.9587 6.72176 17.7412 9.65426 16.4381 10.9724C15.6562 11.7618 13.7456 11.9699 13.6219 11.9999C12.3919 12.2961 11.7694 14.128 11.7694 14.128Z" fill="#F48FB1"/>
<path d="M8.24791 7.27344C8.21229 7.68594 8.19541 7.93156 8.30229 8.46781C8.81791 8.84656 9.94104 8.84656 9.94104 8.84656C9.89229 8.69469 9.84916 8.56344 9.83041 8.46969C9.82666 8.45656 9.82479 8.44156 9.82104 8.42844C8.67916 7.85844 8.24791 7.27344 8.24791 7.27344Z" fill="#C92B27"/>
<path d="M5.91189 9.12004L3.97314 8.16941L4.93877 6.77441L6.45939 7.78129L5.91189 9.12004Z" fill="#FFC107"/>
<path d="M3.0542 6.48797C2.0642 6.35484 1.05545 5.51484 0.944824 5.41922L1.91795 4.27734C2.21232 4.52672 2.8367 4.94484 3.25482 5.00109L3.0542 6.48797Z" fill="#FB8C00"/>
<path d="M4.80195 3.98781L3.37695 3.52094C3.54008 3.02219 3.5832 2.48406 3.49883 1.96469L4.98008 1.72656C5.10195 2.48031 5.04008 3.26219 4.80195 3.98781Z" fill="#03A9F4"/>
<path d="M13.7012 2.87336L15.1665 2.55273L15.5897 4.48698L14.1244 4.80761L13.7012 2.87336Z" fill="#FB8C00"/>
<path d="M17.3364 3.33184L16.3052 2.24246C16.8452 1.73059 16.9689 1.06121 16.9689 1.05371L18.4502 1.29559C18.4314 1.41371 18.2421 2.47496 17.3364 3.33184Z" fill="#FFC107"/>
<path d="M17.9087 9.10872L19.2188 8.69922L19.6661 10.131L18.3561 10.5405L17.9087 9.10872Z" fill="#FB8C00"/>
<path d="M18.2906 21.1929L16.8 21.0166C16.8637 20.486 16.4681 19.8354 16.3594 19.691L17.5594 18.791C17.6494 18.9091 18.4313 19.991 18.2906 21.1929Z" fill="#F44336"/>
<path d="M22.5696 19.2923C22.009 19.2079 21.4352 19.1742 20.869 19.1948L20.8184 17.6948C21.4765 17.6723 22.1421 17.7098 22.7927 17.8092L22.5696 19.2923Z" fill="#FB8C00"/>
<path d="M20.5527 21.3565L21.6065 20.2891L23.0568 21.7212L22.003 22.7884L20.5527 21.3565Z" fill="#F48FB1"/>
<path d="M17.457 11.875L18.5407 13.1142L17.3015 14.1979L16.2178 12.9587L17.457 11.875Z" fill="#F44336"/>
</g>
<defs>
<linearGradient id="paint0_linear_1643_18637" x1="13.9468" y1="11.5949" x2="8.36548" y2="14.9436" gradientUnits="userSpaceOnUse">
<stop offset="0.024" stop-color="#8F4700"/>
<stop offset="1" stop-color="#703E2D"/>
</linearGradient>
<clipPath id="clip0_1643_18637">
<rect width="24" height="24" fill="white"/>
</clipPath>
</defs>
</svg>
