<svg width="24" height="24" viewBox="0 0 24 24" fill="none" xmlns="http://www.w3.org/2000/svg">
<g clip-path="url(#clip0_1643_18670)">
<path d="M20.4857 3.5145C25.1717 8.2005 25.1717 15.7992 20.4857 20.4852C15.7997 25.1712 8.20166 25.1712 3.51499 20.4852C-1.17101 15.7992 -1.17101 8.2005 3.51499 3.5145C8.20099 -1.1715 15.799 -1.1715 20.4857 3.5145Z" fill="#FFCB4C"/>
<path d="M12.8525 12.8532C10.5231 15.1825 8.70646 16.4559 6.42246 17.9959C5.9018 18.3485 5.13713 19.2819 6.42313 20.5685C8.99446 23.1399 15.1638 23.3999 19.2811 19.2825C23.3991 15.1645 23.1398 8.99586 20.5671 6.42386C19.2811 5.13719 18.3471 5.90253 17.9951 6.42386C16.4565 8.70586 15.1825 10.5232 12.8525 12.8532Z" fill="#65471B"/>
<path d="M7.70947 19.2817C7.70947 19.2817 10.2815 17.9957 14.1388 14.1377C17.9968 10.2803 19.2821 7.70898 19.2821 7.70898C19.2821 7.70898 20.5675 11.567 16.0675 16.067C11.5675 20.567 7.70947 19.2817 7.70947 19.2817Z" fill="white"/>
<path d="M5.50981 16.8223C5.4112 16.9221 5.28357 16.9881 5.14518 17.011C5.00678 17.0339 4.86468 17.0125 4.7392 16.9497C4.61372 16.887 4.51126 16.7863 4.44648 16.6619C4.38169 16.5374 4.35789 16.3957 4.37847 16.257C4.39514 16.1396 4.74047 13.837 6.22781 11.6423C4.47647 12.2243 3.16847 13.5063 3.15181 13.523C3.02671 13.648 2.85708 13.7182 2.68024 13.7181C2.50339 13.718 2.33381 13.6477 2.20881 13.5226C2.0838 13.3975 2.01361 13.2279 2.01367 13.0511C2.01373 12.8742 2.08405 12.7046 2.20914 12.5796C2.31314 12.4756 4.79714 10.0276 7.86581 10.0276C7.99778 10.0273 8.12687 10.0663 8.23668 10.1395C8.3465 10.2127 8.43209 10.3168 8.48259 10.4388C8.53309 10.5607 8.54623 10.6949 8.52033 10.8243C8.49443 10.9537 8.43067 11.0725 8.33714 11.1656C6.16247 13.3403 5.70181 16.415 5.69714 16.445C5.67712 16.5877 5.6114 16.7201 5.50981 16.8223ZM16.8218 5.50896C16.7202 5.61041 16.5886 5.67635 16.4465 5.69696C16.4151 5.70163 13.3291 6.17363 11.1658 8.33696C11.0726 8.43017 10.9538 8.49364 10.8245 8.51935C10.6952 8.54506 10.5612 8.53186 10.4394 8.48141C10.3176 8.43097 10.2135 8.34554 10.1402 8.23593C10.0669 8.12633 10.0278 7.99746 10.0278 7.86563C10.0278 4.79629 12.4758 2.31296 12.5798 2.20896C12.7055 2.08743 12.8738 2.02011 13.0486 2.02151C13.2234 2.0229 13.3907 2.09289 13.5144 2.21641C13.6381 2.33993 13.7083 2.50709 13.7099 2.68189C13.7116 2.85669 13.6445 3.02514 13.5231 3.15096C13.5058 3.16829 12.2238 4.47563 11.6418 6.22696C13.8365 4.73963 16.1385 4.39429 16.2558 4.37763C16.3943 4.35777 16.5356 4.38201 16.6596 4.44691C16.7836 4.51182 16.884 4.6141 16.9466 4.73926C17.0092 4.86442 17.0309 5.00612 17.0085 5.14426C16.9861 5.28241 16.9208 5.41 16.8218 5.50896Z" fill="#65471B"/>
<path d="M20.0673 8.03665C20.5018 8.08949 20.9425 8.05622 21.3642 7.93875C21.7859 7.82127 22.1803 7.62188 22.5249 7.35197C22.8696 7.08206 23.1577 6.74692 23.3728 6.36567C23.5879 5.98442 23.7258 5.56453 23.7786 5.12999C23.8316 4.69544 23.7984 4.25472 23.681 3.833C23.5636 3.41127 23.3643 3.0168 23.0944 2.6721C22.8246 2.32741 22.4895 2.03924 22.1083 1.82406C21.727 1.60888 21.3072 1.47089 20.8726 1.41799C19.0453 1.19599 13.9333 3.25999 13.8526 3.92199C13.7719 4.58399 18.2399 7.81332 20.0673 8.03665ZM8.10461 19.9993C8.15745 20.4339 8.12419 20.8746 8.00671 21.2962C7.88923 21.7179 7.68985 22.1124 7.41994 22.457C7.15003 22.8016 6.81488 23.0897 6.43363 23.3048C6.05238 23.5199 5.63249 23.6578 5.19795 23.7107C4.7634 23.7636 4.32268 23.7304 3.90096 23.613C3.47923 23.4956 3.08476 23.2963 2.74007 23.0265C2.39537 22.7566 2.10721 22.4215 1.89202 22.0403C1.67684 21.6591 1.53886 21.2392 1.48595 20.8047C1.26328 18.9767 3.32795 13.8647 3.98995 13.784C4.65128 13.704 7.88128 18.172 8.10461 19.9993Z" fill="#64AADD"/>
</g>
<defs>
<clipPath id="clip0_1643_18670">
<rect width="24" height="24" fill="white"/>
</clipPath>
</defs>
</svg>
