<svg width="24" height="24" viewBox="0 0 24 24" fill="none" xmlns="http://www.w3.org/2000/svg">
<g clip-path="url(#clip0_1989_6819)">
<path d="M20.2504 3.60005C19.6504 3.00005 18.7504 2.85005 18.0004 3.15005C18.0004 2.70005 17.8504 2.25005 17.4004 1.80005C17.1004 1.50005 16.5004 1.20005 15.7504 1.20005C15.3004 1.20005 15.0004 1.35005 14.7004 1.35005C14.7004 1.05005 14.5504 0.900049 14.4004 0.600049C13.6504 -0.299951 12.1504 -0.299951 11.4004 0.600049C11.1004 0.900049 10.8004 1.20005 10.8004 1.50005C10.5004 1.50005 10.2004 1.35005 9.90043 1.35005C9.15043 1.35005 8.70043 1.65005 8.25043 2.10005C7.50043 2.85005 7.50043 4.05005 7.50043 4.05005V9.75005C7.05043 9.30005 6.30043 8.55005 5.25043 8.55005C4.95043 8.55005 4.50043 8.70005 4.20043 8.85005C3.60043 9.15005 3.30043 9.60005 3.15043 10.2C2.70043 11.7 4.05043 13.8 4.05043 13.95C4.20043 14.1 5.85043 18 7.35043 19.65C8.85043 21.45 10.5004 22.5 14.7004 22.5C19.0504 22.5 21.0004 20.1 21.0004 14.85V6.60005C21.0004 6.45005 21.1504 4.65005 20.2504 3.60005ZM12.0004 3.00005C12.0004 2.55005 11.8504 1.50005 12.7504 1.50005C13.5004 1.50005 13.5004 2.25005 13.5004 3.00005V9.00005C13.5004 9.45005 13.8004 9.75005 14.2504 9.75005C14.7004 9.75005 15.0004 9.45005 15.0004 9.00005V3.30005C15.0004 3.30005 15.0004 2.70005 15.7504 2.70005C16.6504 2.70005 16.5004 4.05005 16.5004 4.05005V9.00005C16.5004 9.45005 16.8004 9.75005 17.2504 9.75005C17.7004 9.75005 18.0004 9.45005 18.0004 9.00005V5.40005C18.0004 5.25005 18.0004 4.50005 18.7504 4.50005C19.5004 4.50005 19.5004 6.00005 19.5004 6.00005V14.85C19.5004 19.95 17.5504 21 14.7004 21C11.1004 21 9.75043 20.25 8.55043 18.6C7.20043 17.1 5.40043 13.2 5.40043 13.05C4.95043 12.6 4.35043 11.25 4.50043 10.65C4.50043 10.5 4.65043 10.35 4.80043 10.2C4.95043 10.2 5.10043 10.05 5.10043 10.05C5.70043 10.05 6.30043 10.8 6.45043 11.1L7.35043 12.45C7.50043 12.75 7.95043 12.9 8.25043 12.75C8.85043 12.75 9.00043 12.45 9.00043 12.15V4.35005C9.00043 3.75005 9.00043 2.85005 9.75043 2.85005C10.3504 2.85005 10.5004 3.30005 10.5004 4.05005V9.00005C10.5004 9.45005 10.8004 9.75005 11.2504 9.75005C11.7004 9.75005 12.0004 9.45005 12.0004 9.00005V3.00005Z" fill="white"/>
</g>
<defs>
<clipPath id="clip0_1989_6819">
<rect width="24" height="24" fill="white"/>
</clipPath>
</defs>
</svg>
